<?xml version="1.0" standalone="no"?><!DOCTYPE svg PUBLIC "-//W3C//DTD SVG 1.1//EN" "http://www.w3.org/Graphics/SVG/1.1/DTD/svg11.dtd"><svg t="1552635901594" class="icon" style="" viewBox="0 0 1024 1024" version="1.1" xmlns="http://www.w3.org/2000/svg" p-id="15245" xmlns:xlink="http://www.w3.org/1999/xlink" width="200" height="200"><defs><style type="text/css"></style></defs><path d="M288 64h64v160h-64z" p-id="15246"></path><path d="M160 192h640v64H160z" p-id="15247"></path><path d="M608 64h64v160h-64z" p-id="15248"></path><path d="M224 320h320v320H224z" p-id="15249"></path><path d="M800 128H160a64.19 64.19 0 0 0-64 64v640a64.19 64.19 0 0 0 64 64h640a64.19 64.19 0 0 0 64-64V192a64.19 64.19 0 0 0-64-64z m-0.11 704H160.11l-0.11-0.11V192.11l0.11-0.11h639.78l0.11 0.11v639.78z" p-id="15250"></path></svg>